<svg width="59" height="59" viewBox="0 0 59 59" fill="none" xmlns="http://www.w3.org/2000/svg">
<path d="M29.5 4.91667C15.93 4.91667 4.91663 15.93 4.91663 29.5C4.91663 43.07 15.93 54.0833 29.5 54.0833C43.07 54.0833 54.0833 43.07 54.0833 29.5C54.0833 15.93 43.07 4.91667 29.5 4.91667ZM29.5 12.2917C33.5808 12.2917 36.875 15.5858 36.875 19.6667C36.875 23.7475 33.5808 27.0417 29.5 27.0417C25.4191 27.0417 22.125 23.7475 22.125 19.6667C22.125 15.5858 25.4191 12.2917 29.5 12.2917ZM29.5 47.2C23.3541 47.2 17.9212 44.0533 14.75 39.2842C14.8237 34.3921 24.5833 31.7125 29.5 31.7125C34.392 31.7125 44.1762 34.3921 44.25 39.2842C41.0787 44.0533 35.6458 47.2 29.5 47.2Z" fill="#65AFFF"/>
</svg>
