<svg width="1921" height="340" viewBox="0 0 1921 340" fill="none" xmlns="http://www.w3.org/2000/svg">
<path d="M0 238V68H49.2256V272H98.4513V34H147.81V272H197.036H246.262V136H295.487V68H344.846V102H394.072V238H443.297V272H492.523V204H541.882V34H591.108V306H640.333V102H689.559V340H738.785V170H788.144V272H837.369H886.595V102H935.82H985.18V204H1034.41V136H1083.63V68H1132.86V102H1182.22V272H1231.44V238H1280.67V272H1329.89H1379.12V238H1428.48V272H1477.7V340H1526.93V306H1576.15V238H1625.51V136H1674.74V34H1723.96V170H1773.19V238H1822.55V68H1871.77V306H1921V0H1871.77H1822.55H1773.19H1723.96H1674.74H1625.51H1576.15H1526.93H1477.7H1428.48H1379.12H1329.89H1280.67H1231.44H1182.22H1132.86H1083.63H1034.41H985.18H935.82H886.595H837.369H788.144H738.785H689.559H640.333H591.108H541.882H492.523H443.297H394.072H344.846H295.487H246.262H197.036H147.81H98.4513H49.2256H0V238Z" fill="#B5E1FF"/>
</svg>
