<svg width="47" height="47" viewBox="0 0 47 47" fill="none" xmlns="http://www.w3.org/2000/svg">
<path d="M23.5 27.4167C26.7508 27.4167 29.3554 24.7925 29.3554 21.5417L29.375 9.79167C29.375 6.54084 26.7508 3.91667 23.5 3.91667C20.2491 3.91667 17.625 6.54084 17.625 9.79167V21.5417C17.625 24.7925 20.2491 27.4167 23.5 27.4167ZM33.8791 21.5417C33.8791 27.4167 28.905 31.5292 23.5 31.5292C18.095 31.5292 13.1208 27.4167 13.1208 21.5417H9.79163C9.79163 28.2196 15.1183 33.7421 21.5416 34.7017V41.125H25.4583V34.7017C31.8816 33.7617 37.2083 28.2392 37.2083 21.5417H33.8791Z" fill="#5899E2"/>
</svg>
