<svg width="1921" height="165" viewBox="0 0 1921 165" fill="none" xmlns="http://www.w3.org/2000/svg">
<path d="M1921 91.3132L1871.77 91.3132L1871.77 54.7985L1822.55 54.7985L1822.55 91.3132L1773.19 91.3132L1773.19 73.0558L1723.96 73.0558L1723.96 109.571L1674.74 109.571L1674.74 54.7985L1625.51 54.7985L1625.51 73.0558L1576.15 73.0558L1576.15 127.828L1526.93 127.828L1477.7 127.828L1428.48 127.828L1428.48 109.571L1379.12 109.571L1379.12 164.343L1329.89 164.343L1329.89 109.571L1280.67 109.571L1231.44 109.571L1231.44 36.5411L1182.22 36.5411L1182.22 91.3131L1132.86 91.3131L1132.86 127.828L1083.63 127.828L1083.63 164.343L1034.41 164.343L1034.41 54.7984L985.18 54.7984L985.18 164.343L935.82 164.343L935.821 18.2837L886.595 18.2837L886.595 127.828L837.369 127.828L837.369 91.3131L788.144 91.3131L738.785 91.3131L738.785 164.343L689.559 164.343L689.559 109.57L640.333 109.57L640.333 164.343L591.108 164.343L591.108 54.7984L541.882 54.7984L541.882 109.57L492.523 109.57L492.523 0.0262941L443.297 0.0262895L443.297 36.541L394.072 36.541L394.072 54.7984L344.846 54.7984L344.846 73.0557L295.487 73.0557L295.487 91.3131L246.261 91.3131L246.261 73.0557L197.036 73.0557L197.036 127.828L147.81 127.828L147.81 164.342L98.4513 164.342L98.4513 54.7983L49.2257 54.7983L49.2257 109.57L4.45856e-06 109.57L1.33757e-05 0.0262479L49.2257 0.0262525L98.4513 0.0262571L147.81 0.0262617L197.036 0.0262664L246.261 0.026271L295.487 0.0262756L344.846 0.0262802L394.072 0.0262849L443.297 0.0262895L492.523 0.0262941L541.882 0.0262987L591.108 0.0263034L640.333 0.026308L689.559 0.0263126L738.785 0.0263172L788.144 0.0263219L837.369 0.0263265L886.595 0.0263311L935.821 0.0263357L985.18 0.0263404L1034.41 0.026345L1083.63 0.0263496L1132.86 0.0263542L1182.22 0.0263589L1231.44 0.0263635L1280.67 0.0263681L1329.89 0.0263727L1379.12 0.0263773L1428.48 0.026382L1477.7 0.0263866L1526.93 0.0263912L1576.15 0.0263958L1625.51 0.0264005L1674.74 0.0264051L1723.96 0.0264097L1773.19 0.0264143L1822.55 0.026419L1871.77 0.0264236L1921 0.0264282L1921 91.3132Z" fill="#A0D2FF"/>
</svg>
